<?xml version="1.0" encoding="UTF-8" standalone="no"?>
<!-- Created with Inkscape (http://www.inkscape.org/) -->

<svg
   xmlns:dc="http://purl.org/dc/elements/1.1/"
   xmlns:cc="http://creativecommons.org/ns#"
   xmlns:rdf="http://www.w3.org/1999/02/22-rdf-syntax-ns#"
   xmlns:svg="http://www.w3.org/2000/svg"
   xmlns="http://www.w3.org/2000/svg"
   xmlns:xlink="http://www.w3.org/1999/xlink"
   xmlns:sodipodi="http://sodipodi.sourceforge.net/DTD/sodipodi-0.dtd"
   xmlns:inkscape="http://www.inkscape.org/namespaces/inkscape"
   width="210mm"
   height="297mm"
   viewBox="0 0 210 297"
   version="1.1"
   id="svg6439"
   inkscape:version="0.92.2 (5c3e80d, 2017-08-06)"
   sodipodi:docname="logo.svg">
  <defs
     id="defs6433">
    <radialGradient
       inkscape:collect="always"
       xlink:href="#linearGradient6155"
       id="radialGradient6412"
       cx="78.250519"
       cy="174.6302"
       fx="78.250519"
       fy="174.6302"
       r="37.92606"
       gradientTransform="matrix(0.53433238,0,0,0.51514758,28.427532,-25.965302)"
       gradientUnits="userSpaceOnUse" />
    <linearGradient
       inkscape:collect="always"
       id="linearGradient6155">
      <stop
         style="stop-color:#e5e2b1;stop-opacity:1;"
         offset="0"
         id="stop6151" />
      <stop
         style="stop-color:#e5e2b1;stop-opacity:0;"
         offset="1"
         id="stop6153" />
    </linearGradient>
  </defs>
  <sodipodi:namedview
     id="base"
     pagecolor="#ffffff"
     bordercolor="#666666"
     borderopacity="1.0"
     inkscape:pageopacity="0.0"
     inkscape:pageshadow="2"
     inkscape:zoom="0.35"
     inkscape:cx="400"
     inkscape:cy="560"
     inkscape:document-units="mm"
     inkscape:current-layer="layer1"
     showgrid="false"
     inkscape:window-width="1280"
     inkscape:window-height="747"
     inkscape:window-x="-8"
     inkscape:window-y="-8"
     inkscape:window-maximized="1" />
  <metadata
     id="metadata6436">
    <rdf:RDF>
      <cc:Work
         rdf:about="">
        <dc:format>image/svg+xml</dc:format>
        <dc:type
           rdf:resource="http://purl.org/dc/dcmitype/StillImage" />
        <dc:title></dc:title>
      </cc:Work>
    </rdf:RDF>
  </metadata>
  <g
     inkscape:label="Layer 1"
     inkscape:groupmode="layer"
     id="layer1">
    <rect
       style="opacity:0.46799999;fill:url(#radialGradient6412);fill-opacity:1;stroke:none;stroke-width:0.59413028;stroke-linejoin:round;stroke-miterlimit:4;stroke-dasharray:none;stroke-dashoffset:0;stroke-opacity:1"
       id="rect6404"
       width="40.530239"
       height="39.075039"
       x="49.97419"
       y="44.457516"
       inkscape:export-xdpi="128.64722"
       inkscape:export-ydpi="128.64722" />
    <g
       aria-label="1"
       transform="matrix(0.9792893,0,0,0.99004596,-14.559638,-104.92034)"
       style="font-style:normal;font-variant:normal;font-weight:normal;font-stretch:normal;font-size:43.752491px;line-height:1.25;font-family:LuteScribeFlagSymbols;-inkscape-font-specification:LuteScribeFlagSymbols;letter-spacing:0px;word-spacing:0px;fill:#000000;fill-opacity:1;stroke:#ada492;stroke-width:1.01558626;stroke-miterlimit:4;stroke-dasharray:none;stroke-dashoffset:0;stroke-opacity:1"
       id="text6237-1"
       inkscape:export-xdpi="128.64722"
       inkscape:export-ydpi="128.64722">
      <path
         d="m 82.09022,154.09234 q 0,-0.85454 0.213635,-1.32453 0.256363,-0.51273 0.598179,-0.64091 0.128181,-0.0427 0.299089,-0.0427 0.213635,0 0.469998,0.12818 0.42727,0.17091 0.769086,0.68364 0.469998,0.6409 1.239085,1.23908 0.769086,0.59818 1.5809,1.1109 0.854541,0.51273 1.623628,0.89727 0.811814,0.42727 1.409992,0.68363 0.683633,0.29909 1.580901,1.06818 0.854541,0.81181 1.281811,1.83726 0.213635,0.55546 0.213635,1.15363 0,0.51273 -0.170908,1.02545 -0.384543,1.15363 -2.179079,2.22181 -0.341816,0.21363 -0.598179,0.12818 -0.256362,-0.0855 -0.42727,-0.29909 -0.170908,-0.21363 -0.256362,-0.55545 -0.08545,-0.29909 -0.04273,-0.55545 0.170908,-0.76909 -0.213636,-1.36727 -0.384543,-0.55545 -0.982722,-0.93999 -0.555451,-0.38455 -1.196357,-0.59818 -0.640905,-0.25636 -0.939995,-0.38454 -0.341816,-0.17091 -0.640905,-0.25637 -0.29909,-0.0854 -0.469998,0.0427 -0.170908,0.12818 -0.256362,0.59818 -0.08545,0.47 -0.08545,1.28181 0,0.59818 0.08545,2.56362 0.04273,2.00817 0.128181,4.69998 0.128181,2.6918 0.256362,5.76815 0.08545,3.07634 0.170909,5.8536 0.08545,2.69181 0.128181,4.7427 0.04273,2.0509 -0.04273,2.73453 -0.08545,0.98273 -0.598179,1.53818 -0.512724,0.55545 -1.110903,0.59818 -0.04273,0 -0.08545,0 -0.598179,0 -1.068176,-0.47 -0.469998,-0.51273 -0.469998,-1.62363 0,-0.59818 0,-2.26453 0,-1.66636 -0.04273,-4.05907 0,-2.39271 -0.04273,-5.25543 0,-2.86271 -0.04273,-5.81087 0,-2.90544 -0.04273,-5.72543 0,-2.77726 -0.04273,-4.99906 0,-2.22181 0,-3.67453 0,-1.49544 0,-1.75181 z"
         style="fill:#000000;fill-opacity:1;stroke:#ada492;stroke-width:1.01558626;stroke-miterlimit:4;stroke-dasharray:none;stroke-dashoffset:0;stroke-opacity:1"
         id="path6315"
         inkscape:connector-curvature="0" />
    </g>
    <g
       aria-label="2"
       transform="matrix(0.9792893,0,0,0.99004596,-14.559638,-104.92034)"
       style="font-style:normal;font-variant:normal;font-weight:normal;font-stretch:normal;font-size:43.752491px;line-height:1.25;font-family:LuteScribeFlagSymbols;-inkscape-font-specification:LuteScribeFlagSymbols;letter-spacing:0px;word-spacing:0px;fill:#000000;fill-opacity:1;stroke:#ada492;stroke-width:1.01558626;stroke-miterlimit:4;stroke-dasharray:none;stroke-dashoffset:0;stroke-opacity:1"
       id="text6241-7"
       inkscape:export-xdpi="128.64722"
       inkscape:export-ydpi="128.64722">
      <path
         d="m 71.200072,169.27307 q 0.08545,2.64908 0.170908,5.55452 0.08545,2.90544 0.128181,5.51179 0.08545,2.52089 0.128181,4.44361 0,1.87999 -0.04273,2.56362 -0.08545,0.98272 -0.598178,1.53817 -0.555452,0.55546 -1.15363,0.59818 -0.04273,0 -0.08545,0 -0.512724,0 -0.982721,-0.46999 -0.512725,-0.51273 -0.512725,-1.62363 0,-0.59818 0.04273,-2.13635 0,-1.53818 0.04273,-3.75998 0.04273,-2.17908 0.08545,-4.82816 0.04273,-2.64908 0.08545,-5.38361 0.04273,-2.77725 0.04273,-5.42633 0,-2.6918 -0.04273,-4.91361 0,-2.22181 -0.04273,-3.84543 -0.08545,-1.62363 -0.213635,-2.26454 -0.08545,-0.51272 -0.08545,-0.93999 0,-0.42727 0.128181,-0.85454 0.213635,-0.76909 0.72636,-1.06818 0.256362,-0.12818 0.555451,-0.12818 0.29909,0 0.598179,0.12818 0.683633,0.29909 1.281811,1.45272 0.427271,0.76909 1.15363,1.32454 0.683633,0.51272 1.538174,0.93999 0.811814,0.42727 1.666354,0.72636 0.854541,0.34182 1.538174,0.68364 0.384543,0.21363 1.068176,0.38454 0.640906,0.17091 1.068176,0.59818 0.512725,0.38454 0.512725,1.06817 0,0.72636 -0.982722,1.92272 -0.854541,1.15363 -1.495447,1.49545 -0.640905,0.34181 -1.068176,0.21363 -0.42727,-0.12818 -0.769087,-0.55545 -0.341816,-0.42727 -0.640905,-0.81181 -0.598179,-0.68364 -1.367266,-1.28181 -0.769086,-0.59818 -1.239084,-0.64091 -0.640905,0 -0.939995,0.38454 -0.299089,0.34182 -0.256362,1.36727 0.04273,0.55545 0.299089,0.89727 0.256363,0.38454 0.598179,0.6409 0.384543,0.25636 0.72636,0.47 0.384543,0.25636 0.640905,0.42727 0.299089,0.21364 0.769087,0.51272 0.469997,0.29909 0.982722,0.55546 0.512724,0.25636 1.068176,0.51272 0.555452,0.21364 0.939995,0.21364 0.598178,0.0855 1.281811,0.38454 0.72636,0.34182 1.196357,0.93999 0.384544,0.51273 0.384544,1.23909 0,0.0855 0,0.17091 -0.04273,0.81181 -1.025449,1.79453 -1.45272,1.5809 -2.221806,1.36727 -0.811814,-0.21364 -1.196358,-1.49545 -0.04273,-0.17091 -0.299089,-0.42727 -0.256362,-0.25636 -0.640906,-0.51272 -0.384543,-0.34182 -0.85454,-0.59818 -0.469998,-0.25636 -0.897268,-0.42727 -0.213636,-0.0427 -0.555452,-0.21364 -0.341816,-0.17091 -0.640905,-0.12818 -0.256363,0.0427 -0.469998,0.38454 -0.170908,0.34182 -0.128182,1.32454 z"
         style="fill:#000000;fill-opacity:1;stroke:#ada492;stroke-width:1.01558626;stroke-miterlimit:4;stroke-dasharray:none;stroke-dashoffset:0;stroke-opacity:1"
         id="path6312"
         inkscape:connector-curvature="0" />
    </g>
    <g
       aria-label="2"
       transform="matrix(0.9792893,0,0,0.99004596,-14.559638,-104.92034)"
       style="font-style:normal;font-variant:normal;font-weight:normal;font-stretch:normal;font-size:43.752491px;line-height:1.25;font-family:LuteScribeFlagSymbols;-inkscape-font-specification:LuteScribeFlagSymbols;letter-spacing:0px;word-spacing:0px;fill:#000000;fill-opacity:1;stroke:#ada492;stroke-width:1.01558626;stroke-miterlimit:4;stroke-dasharray:none;stroke-dashoffset:0;stroke-opacity:1"
       id="text6241-9-1"
       inkscape:export-xdpi="128.64722"
       inkscape:export-ydpi="128.64722">
      <path
         d="m 97.979537,169.97666 q 0.08545,2.64907 0.170908,5.55451 0.08545,2.90544 0.128181,5.51179 0.08545,2.52089 0.128181,4.44361 0,1.87999 -0.04273,2.56362 -0.08545,0.98273 -0.598179,1.53818 -0.555451,0.55545 -1.15363,0.59818 -0.04273,0 -0.08545,0 -0.512724,0 -0.982722,-0.47 -0.512724,-0.51273 -0.512724,-1.62363 0,-0.59818 0.04273,-2.13635 0,-1.53817 0.04273,-3.75998 0.04273,-2.17908 0.08545,-4.82816 0.04273,-2.64907 0.08545,-5.3836 0.04273,-2.77726 0.04273,-5.42634 0,-2.6918 -0.04273,-4.91361 0,-2.2218 -0.04273,-3.84543 -0.08545,-1.62363 -0.213635,-2.26453 -0.08545,-0.51273 -0.08545,-0.94 0,-0.42727 0.128181,-0.85454 0.213635,-0.76909 0.726359,-1.06818 0.256363,-0.12818 0.555452,-0.12818 0.299089,0 0.598179,0.12818 0.683632,0.29909 1.281811,1.45272 0.42727,0.76909 1.15363,1.32454 0.683631,0.51273 1.538171,0.94 0.81182,0.42727 1.66636,0.72636 0.85454,0.34181 1.53817,0.68363 0.38454,0.21363 1.06818,0.38454 0.6409,0.17091 1.06817,0.59818 0.51273,0.38454 0.51273,1.06818 0,0.72636 -0.98272,1.92271 -0.85455,1.15363 -1.49545,1.49545 -0.64091,0.34182 -1.06818,0.21363 -0.42727,-0.12818 -0.76908,-0.55545 -0.34182,-0.42727 -0.64091,-0.81181 -0.59818,-0.68363 -1.36726,-1.28181 -0.769092,-0.59818 -1.239089,-0.64091 -0.640906,0 -0.939995,0.38455 -0.299089,0.34181 -0.256362,1.36726 0.04273,0.55545 0.299089,0.89727 0.256362,0.38454 0.598179,0.6409 0.384543,0.25637 0.726359,0.47 0.384539,0.25636 0.640909,0.42727 0.29909,0.21364 0.76908,0.51273 0.47,0.29909 0.98273,0.55545 0.51272,0.25636 1.06817,0.51272 0.55545,0.21364 0.94,0.21364 0.59818,0.0855 1.28181,0.38454 0.72636,0.34182 1.19636,0.94 0.38454,0.51272 0.38454,1.23908 0,0.0855 0,0.17091 -0.0427,0.81181 -1.02545,1.79454 -1.45272,1.5809 -2.22181,1.36726 -0.81181,-0.21363 -1.19635,-1.49545 -0.0427,-0.1709 -0.29909,-0.42727 -0.25637,-0.25636 -0.64091,-0.51272 -0.38454,-0.34182 -0.85454,-0.59818 -0.47,-0.25636 -0.897268,-0.42727 -0.213635,-0.0427 -0.555451,-0.21364 -0.341816,-0.1709 -0.640906,-0.12818 -0.256362,0.0427 -0.469997,0.38455 -0.170908,0.34181 -0.128181,1.32454 z"
         style="fill:#000000;fill-opacity:1;stroke:#ada492;stroke-width:1.01558626;stroke-miterlimit:4;stroke-dasharray:none;stroke-dashoffset:0;stroke-opacity:1"
         id="path6309"
         inkscape:connector-curvature="0" />
    </g>
  </g>
</svg>
